HIERARCHY
ROOT Hips
{
	OFFSET 0.000000 0.000000 0.000000
	CHANNELS 6 Xposition Yposition Zposition Zrotation Xrotation Yrotation
	JOINT Spine
	{
		OFFSET 0.000000 0.052128 0.009727
		CHANNELS 6 Xposition Yposition Zposition Zrotation Xrotation Yrotation
		JOINT Chest
		{
			OFFSET 0.000000 0.110886 0.014510
			CHANNELS 6 Xposition Yposition Zposition Zrotation Xrotation Yrotation
			JOINT UpperChest
			{
				OFFSET 0.000000 0.124285 -0.013313
				CHANNELS 6 Xposition Yposition Zposition Zrotation Xrotation Yrotation
				JOINT Neck
				{
					OFFSET 0.000000 0.114615 -0.033396
					CHANNELS 6 Xposition Yposition Zposition Zrotation Xrotation Yrotation
					JOINT Head
					{
						OFFSET 0.000000 0.073770 0.009335
						CHANNELS 6 Xposition Yposition Zposition Zrotation Xrotation Yrotation
						JOINT LeftEye
						{
							OFFSET 0.020036 0.059252 0.028383
							CHANNELS 6 Xposition Yposition Zposition Zrotation Xrotation Yrotation
							End Site
							{
								OFFSET 0.020036 0.059252 0.028383
							}
						}
						JOINT RightEye
						{
							OFFSET -0.020036 0.059252 0.028383
							CHANNELS 6 Xposition Yposition Zposition Zrotation Xrotation Yrotation
							End Site
							{
								OFFSET -0.020036 0.059252 0.028383
							}
						}
					}
				}
				JOINT LeftShoulder
				{
					OFFSET 0.022386 0.087264 -0.027443
					CHANNELS 6 Xposition Yposition Zposition Zrotation Xrotation Yrotation
					JOINT LeftUpperArm
					{
						OFFSET 0.086295 -0.014869 0.005364
						CHANNELS 6 Xposition Yposition Zposition Zrotation Xrotation Yrotation
						JOINT LeftLowerArm
						{
							OFFSET 0.210165 -0.009786 0.001763
							CHANNELS 6 Xposition Yposition Zposition Zrotation Xrotation Yrotation
							JOINT LeftHand
							{
								OFFSET 0.204753 -0.000446 0.016902
								CHANNELS 6 Xposition Yposition Zposition Zrotation Xrotation Yrotation
								JOINT LeftIndexProximal
								{
									OFFSET 0.063906 0.005562 0.021442
									CHANNELS 6 Xposition Yposition Zposition Zrotation Xrotation Yrotation
									JOINT LeftIndexIntermediate
									{
										OFFSET 0.032821 -0.000134 0.005149
										CHANNELS 6 Xposition Yposition Zposition Zrotation Xrotation Yrotation
										JOINT LeftIndexDistal
										{
											OFFSET 0.020314 -0.000674 0.002301
											CHANNELS 6 Xposition Yposition Zposition Zrotation Xrotation Yrotation
											End Site
											{
												OFFSET 0.020314 -0.000674 0.002301
											}
										}
									}
								}
								JOINT LeftLittleProximal
								{
									OFFSET 0.063261 0.003125 -0.026793
									CHANNELS 6 Xposition Yposition Zposition Zrotation Xrotation Yrotation
									JOINT LeftLittleIntermediate
									{
										OFFSET 0.031398 -0.000273 0.000022
										CHANNELS 6 Xposition Yposition Zposition Zrotation Xrotation Yrotation
										JOINT LeftLittleDistal
										{
											OFFSET 0.018059 0.000679 -0.000943
											CHANNELS 6 Xposition Yposition Zposition Zrotation Xrotation Yrotation
											End Site
											{
												OFFSET 0.018059 0.000679 -0.000943
											}
										}
									}
								}
								JOINT LeftMiddleProximal
								{
									OFFSET 0.066112 0.008373 0.004780
									CHANNELS 6 Xposition Yposition Zposition Zrotation Xrotation Yrotation
									JOINT LeftMiddleIntermediate
									{
										OFFSET 0.036901 -0.001349 0.002438
										CHANNELS 6 Xposition Yposition Zposition Zrotation Xrotation Yrotation
										JOINT LeftMiddleDistal
										{
											OFFSET 0.022683 -0.002405 0.000937
											CHANNELS 6 Xposition Yposition Zposition Zrotation Xrotation Yrotation
											End Site
											{
												OFFSET 0.022683 -0.002405 0.000937
											}
										}
									}
								}
								JOINT LeftRingProximal
								{
									OFFSET 0.066681 0.008306 -0.010961
									CHANNELS 6 Xposition Yposition Zposition Zrotation Xrotation Yrotation
									JOINT LeftRingIntermediate
									{
										OFFSET 0.034323 -0.000538 0.000172
										CHANNELS 6 Xposition Yposition Zposition Zrotation Xrotation Yrotation
										JOINT LeftRingDistal
										{
											OFFSET 0.019797 0.000700 0.000249
											CHANNELS 6 Xposition Yposition Zposition Zrotation Xrotation Yrotation
											End Site
											{
												OFFSET 0.019797 0.000700 0.000249
											}
										}
									}
								}
								JOINT LeftThumbProximal
								{
									OFFSET 0.002032 -0.006912 0.017734
									CHANNELS 6 Xposition Yposition Zposition Zrotation Xrotation Yrotation
									JOINT LeftThumbIntermediate
									{
										OFFSET 0.032287 -0.002701 0.033401
										CHANNELS 6 Xposition Yposition Zposition Zrotation Xrotation Yrotation
										JOINT LeftThumbDistal
										{
											OFFSET 0.021324 -0.001512 0.019035
											CHANNELS 6 Xposition Yposition Zposition Zrotation Xrotation Yrotation
											End Site
											{
												OFFSET 0.021324 -0.001512 0.019035
											}
										}
									}
								}
							}
						}
					}
				}
				JOINT RightShoulder
				{
					OFFSET -0.022386 0.087267 -0.027443
					CHANNELS 6 Xposition Yposition Zposition Zrotation Xrotation Yrotation
					JOINT RightUpperArm
					{
						OFFSET -0.086294 -0.014870 0.005364
						CHANNELS 6 Xposition Yposition Zposition Zrotation Xrotation Yrotation
						JOINT RightLowerArm
						{
							OFFSET -0.210167 -0.009788 0.001763
							CHANNELS 6 Xposition Yposition Zposition Zrotation Xrotation Yrotation
							JOINT RightHand
							{
								OFFSET -0.204752 -0.000445 0.016902
								CHANNELS 6 Xposition Yposition Zposition Zrotation Xrotation Yrotation
								JOINT RightIndexProximal
								{
									OFFSET -0.063906 0.005562 0.021442
									CHANNELS 6 Xposition Yposition Zposition Zrotation Xrotation Yrotation
									JOINT RightIndexIntermediate
									{
										OFFSET -0.032821 -0.000134 0.005149
										CHANNELS 6 Xposition Yposition Zposition Zrotation Xrotation Yrotation
										JOINT RightIndexDistal
										{
											OFFSET -0.020314 -0.000674 0.002302
											CHANNELS 6 Xposition Yposition Zposition Zrotation Xrotation Yrotation
											End Site
											{
												OFFSET -0.020314 -0.000674 0.002302
											}
										}
									}
								}
								JOINT RightLittleProximal
								{
									OFFSET -0.063261 0.003125 -0.026793
									CHANNELS 6 Xposition Yposition Zposition Zrotation Xrotation Yrotation
									JOINT RightLittleIntermediate
									{
										OFFSET -0.031398 -0.000273 0.000023
										CHANNELS 6 Xposition Yposition Zposition Zrotation Xrotation Yrotation
										JOINT RightLittleDistal
										{
											OFFSET -0.018059 0.000679 -0.000943
											CHANNELS 6 Xposition Yposition Zposition Zrotation Xrotation Yrotation
											End Site
											{
												OFFSET -0.018059 0.000679 -0.000943
											}
										}
									}
								}
								JOINT RightMiddleProximal
								{
									OFFSET -0.066112 0.008373 0.004780
									CHANNELS 6 Xposition Yposition Zposition Zrotation Xrotation Yrotation
									JOINT RightMiddleIntermediate
									{
										OFFSET -0.036901 -0.001349 0.002438
										CHANNELS 6 Xposition Yposition Zposition Zrotation Xrotation Yrotation
										JOINT RightMiddleDistal
										{
											OFFSET -0.022683 -0.002405 0.000937
											CHANNELS 6 Xposition Yposition Zposition Zrotation Xrotation Yrotation
											End Site
											{
												OFFSET -0.022683 -0.002405 0.000937
											}
										}
									}
								}
								JOINT RightRingProximal
								{
									OFFSET -0.066681 0.008306 -0.010961
									CHANNELS 6 Xposition Yposition Zposition Zrotation Xrotation Yrotation
									JOINT RightRingIntermediate
									{
										OFFSET -0.034323 -0.000538 0.000173
										CHANNELS 6 Xposition Yposition Zposition Zrotation Xrotation Yrotation
										JOINT RightRingDistal
										{
											OFFSET -0.019796 0.000700 0.000249
											CHANNELS 6 Xposition Yposition Zposition Zrotation Xrotation Yrotation
											End Site
											{
												OFFSET -0.019796 0.000700 0.000249
											}
										}
									}
								}
								JOINT RightThumbProximal
								{
									OFFSET -0.002032 -0.006912 0.017734
									CHANNELS 6 Xposition Yposition Zposition Zrotation Xrotation Yrotation
									JOINT RightThumbIntermediate
									{
										OFFSET -0.032277 -0.002678 0.033413
										CHANNELS 6 Xposition Yposition Zposition Zrotation Xrotation Yrotation
										JOINT RightThumbDistal
										{
											OFFSET -0.021319 -0.001499 0.019040
											CHANNELS 6 Xposition Yposition Zposition Zrotation Xrotation Yrotation
											End Site
											{
												OFFSET -0.021319 -0.001499 0.019040
											}
										}
									}
								}
							}
						}
					}
				}
			}
		}
	}
	JOINT LeftUpperLeg
	{
		OFFSET 0.077122 -0.039702 -0.004909
		CHANNELS 6 Xposition Yposition Zposition Zrotation Xrotation Yrotation
		JOINT LeftLowerLeg
		{
			OFFSET -0.019634 -0.342480 -0.006634
			CHANNELS 6 Xposition Yposition Zposition Zrotation Xrotation Yrotation
			JOINT LeftFoot
			{
				OFFSET -0.010011 -0.401580 -0.020943
				CHANNELS 6 Xposition Yposition Zposition Zrotation Xrotation Yrotation
				JOINT LeftToes
				{
					OFFSET 0.001443 -0.064447 0.110538
					CHANNELS 6 Xposition Yposition Zposition Zrotation Xrotation Yrotation
					End Site
					{
						OFFSET 0.001443 -0.064447 0.110538
					}
				}
			}
		}
	}
	JOINT RightUpperLeg
	{
		OFFSET -0.077122 -0.039702 -0.004909
		CHANNELS 6 Xposition Yposition Zposition Zrotation Xrotation Yrotation
		JOINT RightLowerLeg
		{
			OFFSET 0.019634 -0.342480 -0.006634
			CHANNELS 6 Xposition Yposition Zposition Zrotation Xrotation Yrotation
			JOINT RightFoot
			{
				OFFSET 0.010012 -0.401580 -0.020943
				CHANNELS 6 Xposition Yposition Zposition Zrotation Xrotation Yrotation
				JOINT RightToes
				{
					OFFSET -0.001442 -0.064447 0.110538
					CHANNELS 6 Xposition Yposition Zposition Zrotation Xrotation Yrotation
					End Site
					{
						OFFSET -0.001442 -0.064447 0.110538
					}
				}
			}
		}
	}
}
MOTION
Frames: 4
Frame Time: 0.041667
-0.013670 0.861477 -0.612541 2.925318 -1.006366 0.342941 -0.000000 0.052128 0.009727 -2.334773 -4.399417 -3.616703 -0.000000 0.110886 0.014510 -1.638394 14.321249 0.182542 -0.000000 0.124285 -0.013313 0.000000 0.000009 -0.000000 -0.000000 0.114615 -0.033396 1.459608 -12.923004 0.197103 0.000000 0.073770 0.009335 3.287554 -2.771293 3.447183 0.020036 0.059252 0.028383 -0.000011 -0.000003 0.000007 -0.020036 0.059252 0.028383 0.000013 -0.000003 -0.000007 0.022386 0.087264 -0.027443 7.959737 -15.354330 11.252366 0.086295 -0.014869 0.005364 -81.195745 0.991758 16.799538 0.210165 -0.009786 0.001763 18.379684 40.527750 -26.488739 0.204753 -0.000446 0.016902 -9.862277 2.350844 -6.946021 0.063906 0.005562 0.021442 -0.000001 -0.000008 -0.000001 0.032821 -0.000134 0.005149 -0.000000 -0.000003 0.000002 0.020314 -0.000674 0.002301 -0.000003 0.000012 -0.000000 0.063261 0.003125 -0.026793 -0.000000 -0.000004 -0.000000 0.031398 -0.000273 0.000022 0.000001 0.000004 0.000001 0.018059 0.000679 -0.000943 -0.000001 -0.000003 0.000001 0.066112 0.008373 0.004780 -0.000001 -0.000003 0.000001 0.036901 -0.001349 0.002438 -0.000003 0.000002 -0.000000 0.022683 -0.002405 0.000937 -0.000001 -0.000004 -0.000001 0.066681 0.008306 -0.010961 0.000003 -0.000003 0.000001 0.034323 -0.000538 0.000172 -0.000003 0.000003 0.000001 0.019797 0.000700 0.000249 0.000000 0.000002 -0.000000 0.002032 -0.006912 0.017734 -0.000001 -0.000007 -0.000005 0.032287 -0.002701 0.033401 0.000008 0.000007 0.000004 0.021324 -0.001512 0.019035 0.000005 0.000005 -0.000011 -0.022386 0.087267 -0.027443 -14.012620 -15.100467 -12.612455 -0.086294 -0.014870 0.005364 85.744016 13.071736 -8.284952 -0.210167 -0.009788 0.001763 -3.482253 21.975977 11.921037 -0.204752 -0.000445 0.016902 5.129883 1.285871 5.549727 -0.063906 0.005562 0.021442 0.000003 -0.000006 -0.000002 -0.032821 -0.000134 0.005149 -0.000003 0.000006 0.000003 -0.020314 -0.000674 0.002302 -0.000001 0.000001 -0.000001 -0.063261 0.003125 -0.026793 -0.000002 0.000002 -0.000002 -0.031398 -0.000273 0.000023 -0.000004 0.000000 0.000000 -0.018059 0.000679 -0.000943 -0.000002 0.000003 -0.000002 -0.066112 0.008373 0.004780 -0.000003 0.000001 -0.000005 -0.036901 -0.001349 0.002438 -0.000002 0.000002 -0.000002 -0.022683 -0.002405 0.000937 0.000001 -0.000006 0.000002 -0.066681 0.008306 -0.010961 0.000001 -0.000004 0.000000 -0.034323 -0.000538 0.000173 -0.000002 0.000001 0.000001 -0.019796 0.000700 0.000249 0.000002 -0.000001 0.000001 -0.002032 -0.006912 0.017734 0.000001 -0.000004 -0.000011 -0.032277 -0.002678 0.033413 -0.000002 0.000003 -0.000016 -0.021319 -0.001499 0.019040 -0.000002 -0.000002 0.000004 0.077122 -0.039702 -0.004909 1.657913 -7.487813 -0.156855 -0.019634 -0.342480 -0.006634 -0.263276 18.933421 -3.189240 -0.010011 -0.401580 -0.020943 1.328545 -8.002603 5.876818 0.001443 -0.064447 0.110538 -0.000000 0.000003 0.000000 -0.077122 -0.039702 -0.004909 -4.952945 -6.058837 -0.086188 0.019634 -0.342480 -0.006634 -0.927205 20.758273 7.336393 0.010012 -0.401580 -0.020943 -0.114804 -5.861632 0.175185 -0.001442 -0.064447 0.110538 0.000000 -0.000011 -0.000000 
-0.014011 0.889723 -0.597695 3.114555 -1.474399 -0.064823 0.000000 0.052128 0.009727 -2.334200 -4.348197 -3.615160 0.000000 0.110886 0.014510 -1.641301 14.367026 0.184616 0.000000 0.124285 -0.013313 0.000000 0.000000 0.000000 -0.000000 0.114615 -0.033396 1.504300 -12.801199 0.204206 -0.000000 0.073770 0.009335 2.651019 -2.463014 3.827323 0.020036 0.059252 0.028383 -0.000008 -0.000005 0.000004 -0.020036 0.059252 0.028383 -0.000003 -0.000011 -0.000003 0.022386 0.087264 -0.027443 7.974472 -15.409639 11.438502 0.086295 -0.014869 0.005364 -81.010217 1.023926 17.074739 0.210165 -0.009786 0.001763 18.956557 41.251600 -27.494273 0.204753 -0.000446 0.016902 -9.927015 2.972103 -8.639865 0.063906 0.005562 0.021442 0.000000 -0.000008 -0.000002 0.032821 -0.000134 0.005149 0.000003 0.000001 0.000004 0.020314 -0.000674 0.002301 -0.000002 0.000010 0.000001 0.063261 0.003125 -0.026793 -0.000001 0.000003 -0.000001 0.031398 -0.000273 0.000022 -0.000003 0.000003 0.000003 0.018059 0.000679 -0.000943 -0.000001 0.000008 0.000001 0.066112 0.008373 0.004780 0.000000 0.000005 -0.000003 0.036901 -0.001349 0.002438 -0.000002 0.000003 0.000001 0.022683 -0.002405 0.000937 -0.000001 0.000009 -0.000001 0.066681 0.008306 -0.010961 -0.000000 -0.000004 -0.000002 0.034323 -0.000538 0.000172 -0.000001 0.000001 0.000000 0.019797 0.000700 0.000249 -0.000003 0.000006 -0.000000 0.002032 -0.006912 0.017734 -0.000002 0.000000 -0.000003 0.032287 -0.002701 0.033401 0.000002 0.000005 -0.000004 0.021324 -0.001512 0.019035 0.000000 -0.000001 0.000003 -0.022386 0.087267 -0.027443 -14.077738 -15.147698 -12.837710 -0.086294 -0.014870 0.005364 86.748675 13.201426 -8.381480 -0.210167 -0.009788 0.001763 -4.436602 24.908097 12.305924 -0.204752 -0.000445 0.016902 4.746538 1.340363 6.176732 -0.063906 0.005562 0.021442 -0.000000 0.000000 0.000002 -0.032821 -0.000134 0.005149 0.000001 -0.000009 -0.000003 -0.020314 -0.000674 0.002302 0.000000 -0.000004 0.000001 -0.063261 0.003125 -0.026793 -0.000003 -0.000001 0.000003 -0.031398 -0.000273 0.000023 -0.000003 -0.000002 -0.000000 -0.018059 0.000679 -0.000943 0.000001 0.000002 -0.000002 -0.066112 0.008373 0.004780 0.000001 0.000001 0.000003 -0.036901 -0.001349 0.002438 -0.000004 -0.000005 -0.000002 -0.022683 -0.002405 0.000937 -0.000001 -0.000004 -0.000001 -0.066681 0.008306 -0.010961 0.000000 0.000004 0.000002 -0.034323 -0.000538 0.000173 0.000006 0.000004 -0.000000 -0.019796 0.000700 0.000249 -0.000004 0.000001 -0.000003 -0.002032 -0.006912 0.017734 -0.000003 -0.000003 -0.000002 -0.032277 -0.002678 0.033413 0.000003 0.000000 -0.000013 -0.021319 -0.001499 0.019040 -0.000001 -0.000002 -0.000008 0.077122 -0.039702 -0.004909 1.893980 -6.741535 -0.155230 -0.019634 -0.342480 -0.006634 0.204902 17.804034 -0.405924 -0.010011 -0.401580 -0.020943 0.344932 -8.310420 0.754013 0.001443 -0.064447 0.110538 -0.000001 -0.000002 0.000000 -0.077122 -0.039702 -0.004909 -6.100878 -5.003528 -0.073297 0.019634 -0.342480 -0.006634 0.428552 18.209491 1.764735 0.010012 -0.401580 -0.020943 0.576842 -3.825195 5.673232 -0.001442 -0.064447 0.110538 0.000001 -0.000002 0.000001 
-0.014313 0.896940 -0.587991 3.502381 -1.753281 -0.193192 0.000000 0.052128 0.009727 -2.487062 -4.304374 -3.192978 -0.000000 0.110886 0.014510 -1.880850 14.430342 0.192788 0.000000 0.124285 -0.013313 0.000000 0.000007 -0.000000 0.000000 0.114615 -0.033396 1.686192 -12.813699 0.247771 -0.000000 0.073770 0.009335 2.422750 -1.860252 3.726383 0.020036 0.059252 0.028383 -0.000011 0.000005 0.000003 -0.020036 0.059252 0.028383 0.000003 -0.000003 -0.000009 0.022386 0.087264 -0.027443 8.320482 -15.445124 11.505387 0.086295 -0.014869 0.005364 -80.270432 2.126858 16.581877 0.210165 -0.009786 0.001763 18.139511 39.950439 -26.746005 0.204753 -0.000446 0.016902 -9.138397 2.943230 -9.164092 0.063906 0.005562 0.021442 -0.000001 -0.000001 0.000005 0.032821 -0.000134 0.005149 -0.000002 -0.000001 0.000001 0.020314 -0.000674 0.002301 -0.000001 -0.000002 0.000000 0.063261 0.003125 -0.026793 -0.000001 -0.000006 0.000002 0.031398 -0.000273 0.000022 0.000001 -0.000005 0.000004 0.018059 0.000679 -0.000943 0.000004 0.000000 0.000002 0.066112 0.008373 0.004780 -0.000002 0.000001 0.000001 0.036901 -0.001349 0.002438 -0.000001 -0.000008 -0.000000 0.022683 -0.002405 0.000937 -0.000003 0.000001 0.000000 0.066681 0.008306 -0.010961 -0.000000 0.000003 0.000001 0.034323 -0.000538 0.000172 0.000000 0.000001 -0.000000 0.019797 0.000700 0.000249 -0.000000 -0.000005 -0.000000 0.002032 -0.006912 0.017734 -0.000004 -0.000003 -0.000012 0.032287 -0.002701 0.033401 0.000006 -0.000004 -0.000007 0.021324 -0.001512 0.019035 0.000008 -0.000007 -0.000009 -0.022386 0.087267 -0.027443 -13.751846 -15.205620 -12.784877 -0.086294 -0.014870 0.005364 87.195356 12.663561 -8.863396 -0.210167 -0.009788 0.001763 -5.306880 26.998047 13.116191 -0.204752 -0.000445 0.016902 4.151497 1.338850 6.580186 -0.063906 0.005562 0.021442 0.000001 -0.000001 -0.000004 -0.032821 -0.000134 0.005149 0.000001 0.000002 -0.000003 -0.020314 -0.000674 0.002302 0.000001 -0.000002 0.000002 -0.063261 0.003125 -0.026793 -0.000001 -0.000009 -0.000000 -0.031398 -0.000273 0.000023 0.000001 0.000002 0.000004 -0.018059 0.000679 -0.000943 0.000003 0.000000 -0.000001 -0.066112 0.008373 0.004780 0.000001 -0.000005 -0.000001 -0.036901 -0.001349 0.002438 -0.000004 -0.000003 0.000001 -0.022683 -0.002405 0.000937 0.000002 -0.000001 -0.000003 -0.066681 0.008306 -0.010961 -0.000003 -0.000001 -0.000001 -0.034323 -0.000538 0.000173 0.000003 0.000005 -0.000001 -0.019796 0.000700 0.000249 -0.000004 -0.000001 0.000001 -0.002032 -0.006912 0.017734 -0.000000 -0.000003 0.000001 -0.032277 -0.002678 0.033413 -0.000000 0.000003 -0.000001 -0.021319 -0.001499 0.019040 -0.000000 -0.000006 -0.000003 0.077122 -0.039702 -0.004909 1.829350 -6.513421 -0.168814 -0.019634 -0.342480 -0.006634 0.146342 17.448464 -0.366847 -0.010011 -0.401580 -0.020943 0.274127 -8.479073 0.370844 0.001443 -0.064447 0.110538 0.000000 -0.000000 0.000000 -0.077122 -0.039702 -0.004909 -6.871212 -4.691955 -0.088551 0.019634 -0.342480 -0.006634 1.258404 16.998642 0.982483 0.010012 -0.401580 -0.020943 0.489362 -3.295594 5.231125 -0.001442 -0.064447 0.110538 0.000000 -0.000008 -0.000001 
-0.014717 0.884992 -0.584914 3.683343 -1.963166 -0.396697 0.000000 0.052128 0.009727 -2.524374 -4.123756 -2.411006 0.000000 0.110886 0.014510 -2.081288 14.666021 0.207620 0.000000 0.124285 -0.013313 -0.000000 0.000002 0.000000 -0.000000 0.114615 -0.033396 1.797198 -13.052431 0.275835 -0.000000 0.073770 0.009335 2.463354 -1.363184 3.361279 0.020036 0.059252 0.028383 -0.000005 -0.000012 0.000009 -0.020036 0.059252 0.028383 0.000004 -0.000007 -0.000000 0.022386 0.087264 -0.027443 8.390028 -15.554545 11.319015 0.086295 -0.014869 0.005364 -78.831304 3.993776 15.299808 0.210165 -0.009786 0.001763 16.196648 36.779216 -24.476306 0.204753 -0.000446 0.016902 -7.563432 2.262630 -8.686463 0.063906 0.005562 0.021442 0.000003 -0.000006 0.000003 0.032821 -0.000134 0.005149 0.000002 -0.000001 0.000001 0.020314 -0.000674 0.002301 -0.000000 0.000004 -0.000003 0.063261 0.003125 -0.026793 0.000000 -0.000001 -0.000002 0.031398 -0.000273 0.000022 -0.000005 0.000008 -0.000000 0.018059 0.000679 -0.000943 -0.000003 0.000006 -0.000001 0.066112 0.008373 0.004780 0.000003 -0.000001 0.000000 0.036901 -0.001349 0.002438 0.000001 0.000002 0.000003 0.022683 -0.002405 0.000937 -0.000000 0.000003 -0.000000 0.066681 0.008306 -0.010961 -0.000001 -0.000002 -0.000001 0.034323 -0.000538 0.000172 -0.000002 0.000000 0.000002 0.019797 0.000700 0.000249 -0.000000 0.000002 -0.000001 0.002032 -0.006912 0.017734 -0.000001 -0.000001 -0.000008 0.032287 -0.002701 0.033401 -0.000001 0.000007 -0.000006 0.021324 -0.001512 0.019035 0.000006 -0.000005 -0.000016 -0.022386 0.087267 -0.027443 -13.623498 -15.324911 -12.549439 -0.086294 -0.014870 0.005364 87.634694 11.645813 -9.590262 -0.210167 -0.009788 0.001763 -5.848984 27.170925 14.017940 -0.204752 -0.000445 0.016902 3.702745 1.327859 6.826847 -0.063906 0.005562 0.021442 0.000000 0.000008 0.000007 -0.032821 -0.000134 0.005149 0.000001 0.000003 0.000000 -0.020314 -0.000674 0.002302 -0.000000 0.000004 0.000002 -0.063261 0.003125 -0.026793 -0.000003 0.000007 0.000005 -0.031398 -0.000273 0.000023 0.000000 -0.000001 0.000002 -0.018059 0.000679 -0.000943 0.000001 0.000003 0.000001 -0.066112 0.008373 0.004780 -0.000003 0.000002 0.000000 -0.036901 -0.001349 0.002438 -0.000001 0.000004 0.000000 -0.022683 -0.002405 0.000937 0.000002 -0.000002 -0.000001 -0.066681 0.008306 -0.010961 -0.000003 0.000005 0.000001 -0.034323 -0.000538 0.000173 -0.000000 0.000003 0.000002 -0.019796 0.000700 0.000249 -0.000000 0.000001 -0.000001 -0.002032 -0.006912 0.017734 -0.000004 0.000008 -0.000002 -0.032277 -0.002678 0.033413 0.000002 -0.000002 -0.000010 -0.021319 -0.001499 0.019040 -0.000003 -0.000004 -0.000011 0.077122 -0.039702 -0.004909 2.118568 -6.477243 -0.142968 -0.019634 -0.342480 -0.006634 -0.591402 17.554997 -0.258138 -0.010011 -0.401580 -0.020943 0.645080 -9.226096 2.013669 0.001443 -0.064447 0.110538 0.000001 0.000002 -0.000001 -0.077122 -0.039702 -0.004909 -6.956685 -5.229294 -0.159369 0.019634 -0.342480 -0.006634 1.485179 17.168473 0.992708 0.010012 -0.401580 -0.020943 0.293737 -3.751942 3.291161 -0.001442 -0.064447 0.110538 0.000001 -0.000008 -0.000000 
